{
  "accessors": [
    {
      "bufferView": 2,
      "componentType": 5126,
      "count": 244,
      "max": [
        1.018813967704773,
        0.7031360268592834,
        0.799377977848053
      ],
      "min": [
        -0.9266549944877625,
        -0.7039139866828918,
        -0.04640499874949455
      ],
      "type": "VEC3"
    },
    {
      "bufferView": 2,
      "byteOffset": 2928,
      "componentType": 5126,
      "count": 244,
      "max": [
        0.989856481552124,
        0.9618149995803833,
        1.0
      ],
      "min": [
        -0.9927337169647217,
        -0.963375985622406,
        -1.0
      ],
      "type": "VEC3"
    },
    {
      "bufferView": 1,
      "componentType": 5126,
      "count": 244,
      "max": [
        0.9725049734115601,
        0.970022976398468
      ],
      "min": [
        0.02686000056564808,
        0.02863200008869171
      ],
      "type": "VEC2"
    },
    {
      "bufferView": 0,
      "componentType": 5125,
      "count": 1260,
      "type": "SCALAR"
    }
  ],
  "asset": {
    "extras": {
      "author": "stxnycrxcker (https://sketchfab.com/stxnycrxcker)",
      "license": "CC-BY-4.0 (http://creativecommons.org/licenses/by/4.0/)",
      "source": "https://sketchfab.com/3d-models/stylized-bread-2c0f9a7625e34121b7fd5505c8f5b5f7",
      "title": "Stylized Bread"
    },
    "generator": "Sketchfab-16.56.0",
    "version": "2.0"
  },
  "bufferViews": [
    {
      "buffer": 0,
      "byteLength": 5040,
      "name": "floatBufferViews",
      "target": 34963
    },
    {
      "buffer": 0,
      "byteLength": 1952,
      "byteOffset": 5040,
      "byteStride": 8,
      "name": "floatBufferViews",
      "target": 34962
    },
    {
      "buffer": 0,
      "byteLength": 5856,
      "byteOffset": 6992,
      "byteStride": 12,
      "name": "floatBufferViews",
      "target": 34962
    }
  ],
  "buffers": [
    {
      "byteLength": 12848,
      "uri": "scene.bin"
    }
  ],
  "images": [
    {
      "uri": "textures/Material.001_baseColor.png"
    }
  ],
  "materials": [
    {
      "doubleSided": true,
      "name": "Material.001",
      "pbrMetallicRoughness": {
        "baseColorTexture": {
          "index": 0
        },
        "metallicFactor": 0.0,
        "roughnessFactor": 0.8011823178082373
      }
    }
  ],
  "meshes": [
    {
      "name": "Object_0",
      "primitives": [
        {
          "attributes": {
            "NORMAL": 1,
            "POSITION": 0,
            "TEXCOORD_0": 2
          },
          "indices": 3,
          "material": 0,
          "mode": 4
        }
      ]
    }
  ],
  "nodes": [
    {
      "children": [
        1
      ],
      "matrix": [
        1.0,
        0.0,
        0.0,
        0.0,
        0.0,
        2.220446049250313e-16,
        -1.0,
        0.0,
        0.0,
        1.0,
        2.220446049250313e-16,
        0.0,
        0.0,
        0.0,
        0.0,
        1.0
      ],
      "name": "Sketchfab_model"
    },
    {
      "children": [
        2
      ],
      "name": "bread.obj.cleaner.materialmerger.gles"
    },
    {
      "mesh": 0,
      "name": "Object_2"
    }
  ],
  "samplers": [
    {
      "magFilter": 9729,
      "minFilter": 9987,
      "wrapS": 10497,
      "wrapT": 10497
    }
  ],
  "scene": 0,
  "scenes": [
    {
      "name": "Sketchfab_Scene",
      "nodes": [
        0
      ]
    }
  ],
  "textures": [
    {
      "sampler": 0,
      "source": 0
    }
  ]
}
